# xmcd CD database file
#
# Track frame offsets:
#	150
#	15580
#	31693
#	48768
#	66699
#	83946
#	102152
#	123691
#	143733
#	162715
#	182117
#
# Disc length: 2687 seconds
#
# Revision: 0
# Processed by: cddbd v1.4PL0 Copyright (c) Steve Scherf et al.
# Submitted via: CDex 1.50Beta5
#
DISCID=960a7d0b
DTITLE=Pointer Sisters - The very best
DYEAR=1900
DGENRE=Rhythmic Soul
TTITLE0=Fire
TTITLE1=He's so shy
TTITLE2=Slow hand
TTITLE3=American music
TTITLE4=I'm so excited
TTITLE5=I need you
TTITLE6=Automatic
TTITLE7=Jump (for my love)
TTITLE8=Neutron dance
TTITLE9=Baby come and get it
TTITLE10=Dare me
EXTD=
EXTT0=
EXTT1=
EXTT2=
EXTT3=
EXTT4=
EXTT5=
EXTT6=
EXTT7=
EXTT8=
EXTT9=
EXTT10=
PLAYORDER=
